#!OML:ASF I:\Actors\actors\Patient Classification 1\Patient 1\Session 1\Subject1.ASF
:FULLY-SPECIFIED
:DEGREES
853
root -0.516496 17.2993 7.87356 47.2815 -2.38031 -7.10199
lowerback 19.6523 0.372649 3.9773
upperback -7.66571 1.39174 -1.39087
thorax -19.6454 -0.0307645 -4.33338
lowerneck -13.8302 5.77637 7.71805
upperneck 8.85868 6.72675 -3.63887
head 5.30147 3.31056 -1.78602
rclavicle 7.95139e-016 9.54166e-015
rhumerus -43.1338 17.1599 -77.7931
rradius 147.057
rwrist -50.1784
rhand 64.9085 -71.8251
rfingers 7.12502
rthumb 74.9093 -21.3508
lclavicle 7.95139e-016 9.54166e-015
lhumerus -50.7789 -13.4729 88.2082
lradius 144.948
lwrist 57.1006
lhand 68.778 -9.49615
lfingers 7.12502
lthumb 74.0784 -433.635
rfemur -73.2545 46.6261 -44.0813
rtibia -3.69841
rfoot -66.494 -55.036
rtoes 47.9733
lfemur -59.2656 29.7629 -32.7638
ltibia 3.1148
lfoot 10.5967 -13.4166
ltoes 37.1863
854
root -0.516822 17.2975 7.89366 47.2015 -2.12205 -7.40447
lowerback 19.3451 0.452535 3.93059
upperback -7.75504 1.48326 -1.36215
thorax -19.5644 0.0193608 -4.30154
lowerneck -13.7964 5.97718 7.57485
upperneck 9.08549 7.00587 -3.44228
head 5.37046 3.45669 -1.67324
rclavicle 7.15625e-015 -2.8625e-014
rhumerus -44.4635 15.3222 -79.3561
rradius 146.87
rwrist -49.1137
rhand 67.0502 -67.2638
rfingers 7.12502
rthumb 74.5605 -9.03957
lclavicle 7.15625e-015 -2.8625e-014
lhumerus -51.8274 -11.5676 88.6903
lradius 144.917
lwrist 57.5106
lhand 68.4782 -9.7948
lfingers 7.12502
lthumb 74.1742 -432.934
rfemur -73.3394 46.6811 -43.7917
rtibia -3.61499
rfoot -65.9499 -55.3051
rtoes 47.5744
lfemur -58.9885 29.8215 -32.086
ltibia 3.04477
lfoot 10.3652 -13.0888
ltoes 37.0834
855
root -0.517711 17.2982 7.91148 47.1559 -1.68424 -7.46511
lowerback 19.1451 0.373206 3.92253
upperback -7.61882 1.37387 -1.29693
thorax -19.8696 -0.0480471 -4.2773
lowerneck -14.0409 6.18419 7.31244
upperneck 9.63798 7.26809 -3.00551
head 5.57228 3.60558 -1.45637
rclavicle -2.06736e-014 1.59028e-014
rhumerus -45.035 11.7428 -80.71
rradius 147.096
rwrist -49.8911
rhand 67.8216 -68.7095
rfingers 7.12502
rthumb 74.3665 -7.7994
lclavicle -2.06736e-014 1.59028e-014
lhumerus -52.686 -9.02519 89.493
lradius 145.087
lwrist 57.5653
lhand 67.7432 -10.1453
lfingers 7.12502
lthumb 74.3878 -430.786
rfemur -73.0274 46.6373 -43.2588
rtibia -3.56419
rfoot -65.5769 -55.406
rtoes 47.3803
lfemur -58.7525 29.5406 -31.474
ltibia 3.02176
lfoot 10.2062 -12.7613
ltoes 37.3491
856
root -0.51809 17.3094 7.93653 46.6279 -1.48474 -7.56537
lowerback 19.3072 0.314113 3.6482
upperback -7.80568 1.22316 -1.29933
thorax -19.6401 -0.0552391 -3.97893
lowerneck -14.1208 6.45331 7.24821
upperneck 9.8487 7.61083 -2.78819
head 5.65807 3.78567 -1.33868
rclavicle 3.18055e-015 1.11319e-014
rhumerus -44.8119 7.05542 -82.0643
rradius 147.645
rwrist -51.4307
rhand 66.9048 -74.8171
rfingers 7.12502
rthumb 74.5931 -17.1062
lclavicle 3.18055e-015 1.11319e-014
lhumerus -53.0293 -5.89148 90.4313
lradius 145.425
lwrist 57.2318
lhand 68.904 -10.36
lfingers 7.12502
lthumb 74.0366 -434.915
rfemur -72.5333 47.2211 -42.7711
rtibia -3.61231
rfoot -65.4922 -55.3881
rtoes 47.3751
lfemur -57.6897 29.5476 -30.7328
ltibia 2.66946
lfoot 9.93878 -12.5186
ltoes 36.933
857
root -0.514411 17.3147 7.95625 46.215 -1.24137 -7.60934
lowerback 19.3771 0.186762 3.26945
upperback -7.75576 0.976992 -1.1069
thorax -19.6504 -0.0956777 -3.45764
lowerneck -13.9706 6.73947 7.23752
upperneck 9.95804 8.02016 -2.85495
head 5.69047 3.98118 -1.31932
rclavicle 1.59028e-015 1.74931e-014
rhumerus -44.2576 2.68307 -84.1904
rradius 147.921
rwrist -51.7356
rhand 66.7829 -77.6488
rfingers 7.12502
rthumb 74.6195 -20.3703
lclavicle 1.59028e-015 1.74931e-014
lhumerus -52.9631 -2.35159 91.6597
lradius 145.778
lwrist 56.9858
lhand 71.8888 -10.2732
lfingers 7.12502
lthumb 72.812 -443.991
rfemur -72.0319 47.6139 -42.29
rtibia -3.65479
rfoot -65.4729 -55.3565
rtoes 47.3909
lfemur -56.881 29.4174 -30.1015
ltibia 2.41726
lfoot 9.69417 -12.2959
ltoes 36.5676
858
root -0.509826 17.3168 7.96781 45.9176 -0.96576 -7.6704
lowerback 19.4338 0.132703 3.23438
upperback -7.84675 0.901351 -1.07734
thorax -19.8089 -0.127373 -3.38118
lowerneck -13.758 6.77305 7.28675
upperneck 10.2334 8.08199 -2.89886
head 5.74991 4.01284 -1.33675
rclavicle 6.36111e-015 1.51076e-014
rhumerus -43.7205 -2.04091 -86.9676
rradius 148.002
rwrist -51.9294
rhand 67.2907 -79.06
rfingers 7.12502
rthumb 74.5038 -19.9911
lclavicle 6.36111e-015 1.51076e-014
lhumerus -52.2845 0.723531 93.2308
lradius 145.13
lwrist 57.1778
lhand 75.0554 -9.03875
lfingers 7.12502
lthumb 71.0916 -269.067
rfemur -71.6543 47.871 -41.8291
rtibia -3.62358
rfoot -65.3989 -55.3409
rtoes 47.4347
lfemur -56.3759 29.265 -29.5133
ltibia 2.34746
lfoot 9.59293 -12.0086
ltoes 36.9983
859
root -0.507579 17.3165 7.97416 45.6488 -0.768446 -7.74082
lowerback 19.4752 0.200547 3.26295
upperback -7.96281 1.00366 -1.09458
thorax -19.9738 -0.0951188 -3.45824
lowerneck -13.7312 6.6361 7.02965
upperneck 10.6935 7.92998 -2.70549
head 5.86529 3.94467 -1.24603
rclavicle 7.95139e-015 2.38542e-014
rhumerus -42.9445 -6.55066 -89.666
rradius 147.787
rwrist -53.2652
rhand 67.8806 -80.2505
rfingers 7.12502
rthumb 74.3502 -19.1379
lclavicle 7.95139e-015 2.38542e-014
lhumerus -51.3572 2.4688 95.0179
lradius 144.542
lwrist 57.9448
lhand 75.0587 -7.39757
lfingers 7.12502
lthumb 71.0897 -89.2999
rfemur -71.3955 48.1258 -41.4903
rtibia -3.60415
rfoot -65.1978 -55.5691
rtoes 47.2939
lfemur -55.926 29.1744 -28.9881
ltibia 2.29129
lfoot 9.54494 -11.7513
ltoes 37.6205
860
root -0.506084 17.3158 7.97487 45.3902 -0.616791 -7.75604
lowerback 19.5353 0.267795 3.35939
upperback -8.10993 1.11122 -1.19084
thorax -20.1882 -0.0793869 -3.66798
lowerneck -13.9053 6.43098 6.59064
upperneck 11.3855 7.66192 -2.17941
head 6.06277 3.8368 -1.02473
rclavicle 7.95139e-016 2.38542e-015
rhumerus -42.0842 -9.88025 -92.5886
rradius 147.222
rwrist -55.5696
rhand 68.4526 -80.9798
rfingers 7.12502
rthumb 74.1821 -17.9262
lclavicle 7.95139e-016 2.38542e-015
lhumerus -50.4954 2.65553 96.7298
lradius 143.837
lwrist 59.1883
lhand 73.4637 -7.18587
lfingers 7.12502
lthumb 72.0038 -85.1691
rfemur -71.1583 48.3253 -41.2387
rtibia -3.59679
rfoot -64.9374 -55.957
rtoes 47.0012
lfemur -55.4425 29.049 -28.5482
ltibia 2.13621
lfoot 9.50981 -11.5476
ltoes 37.9957
861
root -0.500865 17.314 7.97155 45.1781 -0.472266 -7.74202
lowerback 19.5237 0.257566 3.27695
upperback -8.24795 1.08241 -1.15375
thorax -20.3645 -0.0850167 -3.57293
lowerneck -14.0311 6.31245 6.44009
upperneck 12.0517 7.50673 -2.01351
head 6.27748 3.76912 -0.951554
rclavicle -1.74931e-014 1.27222e-014
rhumerus -41.4907 -9.26914 -95.1642
rradius 146.39
rwrist -58.5299
rhand 68.2614 -81.1735
rfingers 7.12502
rthumb 74.2404 -18.764
lclavicle -1.74931e-014 1.27222e-014
lhumerus -49.909 1.55658 98.3556
lradius 142.981
lwrist 60.6144
lhand 72.4618 -7.20089
lfingers 7.12502
lthumb 72.5296 -82.5166
rfemur -70.9464 48.4341 -41.0368
rtibia -3.55973
rfoot -64.8901 -56.0875
rtoes 46.8815
lfemur -54.9439 28.8459 -28.1862
ltibia 1.84411
lfoot 9.43776 -11.389
ltoes 37.8253
862
root -0.489129 17.3128 7.9693 44.9602 -0.429189 -7.82184
lowerback 19.465 0.331972 3.16266
upperback -8.29278 1.17628 -1.0233
thorax -20.3817 -0.0180291 -3.39304
lowerneck -14.1983 6.18196 6.21722
upperneck 12.4652 7.36678 -1.99208
head 6.42261 3.69277 -0.914034
rclavicle 2.38542e-015 2.06736e-014
rhumerus -41.3901 -5.19014 -96.5982
rradius 145.459
rwrist -61.2551
rhand 67.0481 -79.1383
rfingers 7.12502
rthumb 74.561 -20.9215
lclavicle 2.38542e-015 2.06736e-014
lhumerus -49.4988 -0.829594 99.8079
lradius 142.161
lwrist 61.9506
lhand 71.1617 -7.23634
lfingers 7.12502
lthumb 73.1496 -78.8502
rfemur -70.8539 48.6083 -40.9566
rtibia -3.5518
rfoot -64.9993 -55.9962
rtoes 46.8883
lfemur -54.3875 28.7467 -27.8495
ltibia 1.47832
lfoot 9.26323 -11.3202
ltoes 37.1341
863
root -0.47364 17.3176 7.96566 44.723 -0.28762 -7.93177
lowerback 19.4683 0.389023 3.24194
upperback -8.28788 1.30019 -0.909667
thorax -20.3669 0.0358822 -3.3531
lowerneck -14.1785 5.98142 5.92941
upperneck 12.4385 7.13124 -1.82949
head 6.38401 3.57912 -0.843321
rclavicle -6.36111e-015 -1.51076e-014
rhumerus -41.5788 -0.721686 -97.4074
rradius 144.906
rwrist -62.8073
rhand 64.9433 -77.3374
rfingers 7.12502
rthumb 74.9059 -26.7346
lclavicle -6.36111e-015 -1.51076e-014
lhumerus -49.1387 -3.67194 100.288
lradius 141.717
lwrist 62.5643
lhand 70.4622 -6.60867
lfingers 7.12502
lthumb 73.4515 -76.1188
rfemur -70.6602 48.8131 -40.708
rtibia -3.54224
rfoot -65.0893 -55.8805
rtoes 46.8857
lfemur -53.876 28.6298 -27.4024
ltibia 1.22114
lfoot 9.10875 -11.2275
ltoes 36.8657
864
root -0.457702 17.3211 7.96016 44.5954 0.111014 -7.95528
lowerback 19.3423 0.335684 3.55151
upperback -8.30042 1.32836 -0.820023
thorax -20.2981 0.0170879 -3.43422
lowerneck -14.2165 5.69966 5.61826
upperneck 12.4588 6.75887 -1.48142
head 6.35908 3.41313 -0.721596
rclavicle 7.95139e-016 2.22639e-014
rhumerus -41.722 2.30789 -96.4116
rradius 144.875
rwrist -62.0561
rhand 65.1309 -76.4962
rfingers 7.12502
rthumb 74.8865 -25.2022
lclavicle 7.95139e-016 2.22639e-014
lhumerus -48.6546 -6.42134 99.5858
lradius 141.591
lwrist 61.921
lhand 70.2759 -6.81947
lfingers 7.12502
lthumb 73.528 -75.7563
rfemur -70.2359 48.8284 -40.1635
rtibia -3.51595
rfoot -65.1876 -55.8138
rtoes 46.8375
lfemur -53.6345 28.2756 -26.8923
ltibia 1.14831
lfoot 9.0677 -11.0538
ltoes 37.1679
865
root -0.443658 17.3201 7.95629 44.5278 0.359762 -7.92531
lowerback 19.0767 0.362224 3.7662
upperback -8.29693 1.42326 -0.779307
thorax -20.1171 0.0395903 -3.53696
lowerneck -14.4699 5.36497 5.32149
upperneck 12.7437 6.31063 -1.19351
head 6.45788 3.20602 -0.619402
rclavicle -7.55382e-015 1.74931e-014
rhumerus -41.549 3.94775 -94.0134
rradius 145.108
rwrist -60.0696
rhand 66.0422 -76.4641
rfingers 7.12502
rthumb 74.7603 -21.8423
lclavicle -7.55382e-015 1.74931e-014
lhumerus -47.8398 -8.94227 97.9852
lradius 141.719
lwrist 60.45
lhand 70.402 -7.29382
lfingers 7.12502
lthumb 73.4764 -76.6193
rfemur -69.9314 48.7949 -39.8771
rtibia -3.52535
rfoot -65.318 -55.8237
rtoes 46.7537
lfemur -53.4915 27.9514 -26.5844
ltibia 1.11399
lfoot 9.06486 -10.892
ltoes 37.3347
866
root -0.429386 17.3238 7.94908 44.4318 0.541618 -7.78877
lowerback 18.9228 0.29 3.71165
upperback -8.33019 1.32255 -0.669911
thorax -20.0776 0.0145487 -3.34295
lowerneck -14.4049 5.21936 5.59422
upperneck 13.0121 6.10974 -1.49501
head 6.54547 3.09898 -0.777714
rclavicle -4.77083e-015 1.66979e-014
rhumerus -41.2222 5.43685 -91.1905
rradius 145.492
rwrist -58.0838
rhand 66.2641 -76.6287
rfingers 7.12502
rthumb 74.7216 -21.2059
lclavicle -4.77083e-015 1.66979e-014
lhumerus -47.0235 -11.0105 95.7677
lradius 142.212
lwrist 59.0183
lhand 70.1129 -8.16583
lfingers 7.12502
lthumb 73.5934 -76.5968
rfemur -69.5715 48.778 -39.6703
rtibia -3.52468
rfoot -65.4603 -55.8113
rtoes 46.7666
lfemur -53.3807 27.6005 -26.4028
ltibia 1.18897
lfoot 9.09835 -10.7084
ltoes 37.837
867
root -0.418961 17.3332 7.93913 44.2951 0.756378 -7.66406
lowerback 18.9281 0.0897307 3.36846
upperback -8.36605 1.00538 -0.369461
thorax -20.1648 -0.0517709 -2.69434
lowerneck -14.1633 5.23585 6.06101
upperneck 13.228 6.12721 -1.96967
head 6.60547 3.09346 -1.00478
rclavicle 1.63003e-014 2.70347e-014
rhumerus -40.5881 7.17207 -88.1426
rradius 145.741
rwrist -55.5801
rhand 67.3756 -76.0464
rfingers 7.12502
rthumb 74.4829 -16.6807
lclavicle 1.63003e-014 2.70347e-014
lhumerus -46.3 -12.5005 92.9882
lradius 143.262
lwrist 58.1252
lhand 69.0937 -8.10866
lfingers 7.12502
lthumb 73.9721 -73.2857
rfemur -69.2147 48.8227 -39.3869
rtibia -3.45254
rfoot -65.581 -55.746
rtoes 46.8927
lfemur -53.2014 27.292 -26.1252
ltibia 1.26335
lfoot 9.04173 -10.5526
ltoes 38.1379
